<svg xmlns="http://www.w3.org/2000/svg" width="518" height="612"><path d="M72.226947 372.87397 34.94663 282.87265l7.533259-18.18584H305.74922l-196.8125 196.8127zM221.15982 187.66358l-44.00933-41.34439 17.75521-17.75581 14.06249 14.69714c3.12594-12.04854 11.40815-22.66024 23.57044-28.33178 15.32395-7.14531 32.69558-4.52844 45.10833 5.29697l-.34845-11.16547h25.10986l-.28057 12.70866c12.49416-11.07825 30.85181-14.34627 46.95028-6.83958 11.57496 5.39776 19.63327 15.27068 23.07929 26.59798l12.40457-12.96392 17.75518 17.75581-44.00934 41.34439h64.9735l-25.32578 25.32577H63.895046L53.456378 238.189H332.91117l39.87702-.0338L-.14289574 611.21912 15.5672 554.86889l73.369646-73.36944-40.851671-98.62477L6.6627643 282.87271l41.4235987-99.99995 41.419635-99.999755 99.999752-41.419626L289.5055.02996157 389.50767 41.452181l99.99915 41.420824.027.06557-19.99989 20.000265-.027-.0654-89.99952-37.279369-90.00192-37.280509-89.99952 37.281508-89.99972 37.27833-35.120645 84.79015Zm106.85372 0 35.5042-37.10689c-1.20493-11.05454-7.98804-21.22959-18.80229-26.2721-15.95416-7.43926-34.82591-.97867-42.96105 14.41314l-1.08001 48.96585zm-48.26041 0-1.61964-51.86727c-8.86093-13.27544-26.32138-18.46565-41.23283-11.51232-11.48917 5.35763-18.42673 16.50893-18.96076 28.35271l33.5142 35.02688zm132.22477-50.42086 9.34169-8.77593-1.58172-17.97431-17.15491-.76254-8.85937 9.25867zm-244.4882 0-9.34167-8.77593 1.58173-17.97431 17.15491-.76254 8.85915 9.25867zm109.39533-41.431387-.39992-12.811074 13.82824-11.59153 12.66977 11.59153-.28299 12.811074zM184.32972 499.83371l-39.87701.0338 372.93128-373.064-15.7103 56.35023L316.7331 368.09432h176.62167v26.49781H290.23532l-78.74367 78.74364h280.18342v26.4978z" style="fill:#ffffff;fill-rule:evenodd;stroke-width:1.99561691"/></svg>
